<?xml version="1.0" ?><svg viewBox="0 0 64 64" xmlns="http://www.w3.org/2000/svg"><defs><style>.a{fill:none;stroke:#000;stroke-linecap:round;stroke-linejoin:round;stroke-width:3px;}</style></defs><title/><path class="a" d="M51,9V49L41,59H17a4,4,0,0,1-4-4V9a4,4,0,0,1,4-4H47A4,4,0,0,1,51,9Z"/><path class="a" d="M42.81,13.69a7.64,7.64,0,0,0-10.81,0h0a7.64,7.64,0,0,0-10.81,0c-3,3-2.15,8.35.19,11.86s8.16,8,10,9.33a1,1,0,0,0,1.17,0c1.86-1.37,7.67-5.79,10-9.33S45.79,16.68,42.81,13.69Z"/><path class="a" d="M51,49,41,59V53a4,4,0,0,1,4-4Z"/><line class="a" x1="19.5" x2="44.5" y1="40" y2="40"/><line class="a" x1="19.67" x2="36.33" y1="46" y2="46"/><line class="a" x1="19.67" x2="36.33" y1="51" y2="51"/></svg>
