<?xml version="1.0" ?><svg viewBox="0 0 64 64" xmlns="http://www.w3.org/2000/svg"><defs><style>.a{stroke:#000;stroke-width:2px;}</style></defs><title/><g id="Outline"><path class="a" d="M50.7,18.17C50.7,12,46.76,7,41.92,7s-8.78,5-8.78,11.17c0,4.82,2.41,8.93,5.78,10.49V33a1,1,0,0,0-1,1V54a3,3,0,0,0,3,3h2a3,3,0,0,0,3-3V34a1,1,0,0,0-1-1V28.69s0,0,0,0C48.28,27.1,50.7,23,50.7,18.17ZM43.92,54a1,1,0,0,1-1,1h-2a1,1,0,0,1-1-1V35h4Zm-1-21h-2V29.27a6.53,6.53,0,0,0,1,.08,6.74,6.74,0,0,0,1-.08Zm-1-5.65c-3.74,0-6.78-4.12-6.78-9.18S38.18,9,41.92,9s6.78,4.11,6.78,9.17S45.65,27.35,41.92,27.35Z"/><path class="a" d="M31.3,20V10.5a2.5,2.5,0,1,0-5,0V19H24.8V10.5a2.5,2.5,0,1,0-5,0V19H18.3V10.5a2.5,2.5,0,0,0-5,0V20a10.05,10.05,0,0,0,6,8.7,1,1,0,0,0,0,.17V33a1,1,0,0,0-1,1V54a3,3,0,0,0,3,3h2a3,3,0,0,0,3-3V34a1,1,0,0,0-1-1V28.87a1,1,0,0,0,0-.17A10,10,0,0,0,31.3,20Zm-7,34a1,1,0,0,1-1,1h-2a1,1,0,0,1-1-1V35h4Zm-1-21h-2V29.27a8.59,8.59,0,0,0,1,.08,8.26,8.26,0,0,0,1-.08Zm-1-5.65c-3.46,0-7-3.71-7-7.35V10.5a.5.5,0,0,1,.5-.5.5.5,0,0,1,.5.5V20a1,1,0,0,0,1,1h3.5a1,1,0,0,0,1-1V10.5a.5.5,0,0,1,.5-.5.5.5,0,0,1,.5.5V20a1,1,0,0,0,1,1h3.5a1,1,0,0,0,1-1V10.5a.5.5,0,0,1,.5-.5.5.5,0,0,1,.5.5V20C29.3,23.64,25.77,27.35,22.3,27.35Z"/></g></svg>
